
<svg width="195" height="195" viewBox="0 0 195 195" fill="none" xmlns="http://www.w3.org/2000/svg">
<path fill-rule="evenodd" clip-rule="evenodd" d="M97.5 195C151.348 195 195 151.348 195 97.5C195 43.6522 151.348 0 97.5 0C43.6522 0 0 43.6522 0 97.5C0 151.348 43.6522 195 97.5 195ZM52 75C52 72.2386 54.2386 70 57 70H134C136.761 70 139 72.2386 139 75V130C139 132.761 136.761 135 134 135H57C54.2386 135 52 132.761 52 130V75ZM83.576 85.808L82.856 85.304H75.872L75.152 85.808L65.36 118.136L66.008 119H73.064L73.712 118.496L74.864 114.824H83.864L85.016 118.496L85.664 119H92.72L93.368 118.136L83.576 85.808ZM76.952 107.768L79.328 99.992L81.704 107.768H76.952ZM123.21 92.432C120.906 88.832 117.378 87.032 114.498 86.168C111.546 85.304 109.17 85.304 108.882 85.304H97.6503L96.9303 86.024V118.352L97.6503 119H108.882C109.242 119 113.418 119 117.522 116.912C119.61 115.904 121.626 114.248 123.21 111.872C124.722 109.496 125.73 106.328 125.73 102.152C125.73 98.048 124.722 94.808 123.21 92.432ZM116.082 107.048C115.002 108.776 113.346 109.712 111.834 110.144C110.394 110.576 109.098 110.576 108.882 110.576H105.354V93.728H108.882C109.17 93.728 111.33 93.728 113.346 94.808C114.354 95.312 115.362 96.104 116.082 97.256C116.802 98.408 117.306 99.992 117.306 102.152C117.306 104.312 116.802 105.896 116.082 107.048Z" fill="#E6BE6C"/>
</svg>
