<svg width="195" height="195" viewBox="0 0 195 195" fill="none" xmlns="http://www.w3.org/2000/svg">
<path fill-rule="evenodd" clip-rule="evenodd" d="M97.5 195C151.348 195 195 151.348 195 97.5C195 43.6522 151.348 0 97.5 0C43.6522 0 0 43.6522 0 97.5C0 151.348 43.6522 195 97.5 195ZM98 140C121.196 140 140 121.196 140 98C140 74.804 121.196 56 98 56C74.804 56 56 74.804 56 98C56 121.196 74.804 140 98 140Z" fill="#E6BE6C"/>
<circle cx="98" cy="83" r="15" fill="#E6BE6C"/>
<path d="M83.424 107.201C86.6366 105.641 90.3165 105.79 93.7872 106.633C96.9951 107.412 99.0588 107.236 103.088 106.204C105.974 105.466 109.043 105.423 111.774 106.611C114.976 108.003 117.644 109.675 119.95 111.911C122.039 113.938 122.34 117.215 120.653 119.586C117.925 123.419 114.417 125.23 107.5 126C100.551 127.384 96.4916 127.365 89 126C81.1199 124.04 76.8885 122.502 74.5635 119.013C73.2112 116.983 73.763 114.277 75.4991 112.565C77.7705 110.324 80.4321 108.655 83.424 107.201Z" fill="#E6BE6C"/>
</svg>
