<svg width="195" height="195" viewBox="0 0 195 195" fill="none" xmlns="http://www.w3.org/2000/svg">
<path d="M127.745 113.272C127.745 115.482 125.954 117.272 123.745 117.272C121.536 117.272 119.745 115.482 119.745 113.272C119.745 111.063 121.536 109.272 123.745 109.272C125.954 109.272 127.745 111.063 127.745 113.272Z" fill="#E6BE6C"/>
<path d="M83.7454 89.2726C83.7454 91.4818 81.9545 93.2726 79.7454 93.2726C77.5363 93.2726 75.7454 91.4818 75.7454 89.2726C75.7454 87.0635 77.5363 85.2726 79.7454 85.2726C81.9545 85.2726 83.7454 87.0635 83.7454 89.2726Z" fill="#E6BE6C"/>
<path d="M79.7454 72.2726C81.9545 72.2726 83.7454 70.4818 83.7454 68.2726C83.7454 66.0635 81.9545 64.2726 79.7454 64.2726C77.5363 64.2726 75.7454 66.0635 75.7454 68.2726C75.7454 70.4818 77.5363 72.2726 79.7454 72.2726Z" fill="#E6BE6C"/>
<path d="M61.7454 89.2726C61.7454 91.4818 59.9545 93.2726 57.7454 93.2726C55.5363 93.2726 53.7454 91.4818 53.7454 89.2726C53.7454 87.0635 55.5363 85.2726 57.7454 85.2726C59.9545 85.2726 61.7454 87.0635 61.7454 89.2726Z" fill="#E6BE6C"/>
<path d="M102.745 93.2726C104.955 93.2726 106.745 91.4818 106.745 89.2726C106.745 87.0635 104.955 85.2726 102.745 85.2726C100.536 85.2726 98.7454 87.0635 98.7454 89.2726C98.7454 91.4818 100.536 93.2726 102.745 93.2726Z" fill="#E6BE6C"/>
<path d="M83.7454 111.273C83.7454 113.482 81.9545 115.273 79.7454 115.273C77.5363 115.273 75.7454 113.482 75.7454 111.273C75.7454 109.063 77.5363 107.273 79.7454 107.273C81.9545 107.273 83.7454 109.063 83.7454 111.273Z" fill="#E6BE6C"/>
<path fill-rule="evenodd" clip-rule="evenodd" d="M195 97.5C195 151.348 151.348 195 97.5 195C43.6522 195 0 151.348 0 97.5C0 43.6522 43.6522 0 97.5 0C151.348 0 195 43.6522 195 97.5ZM95.7454 125.161V131.272C95.7454 136.243 99.7748 140.272 104.745 140.272H142.745C147.716 140.272 151.745 136.243 151.745 131.272V95.2725C151.745 90.3019 147.716 86.2725 142.745 86.2725H120.737L121.321 86.8568C124.836 90.3716 124.836 96.07 121.321 99.5848L95.7454 125.161ZM46.636 98.7073C43.1213 95.1926 43.1213 89.4941 46.636 85.9794L75.9794 56.636C79.4941 53.1213 85.1926 53.1213 88.7073 56.636L117.762 85.6911C121.277 89.2059 121.277 94.9044 117.762 98.4191L88.4191 127.762C84.9043 131.277 79.2059 131.277 75.6911 127.762L46.636 98.7073Z" fill="#E6BE6C"/>
</svg>
