<svg width="195" height="195" viewBox="0 0 195 195" fill="none" xmlns="http://www.w3.org/2000/svg">
<path fill-rule="evenodd" clip-rule="evenodd" d="M97.5 195C151.348 195 195 151.348 195 97.5C195 43.6522 151.348 0 97.5 0C43.6522 0 0 43.6522 0 97.5C0 151.348 43.6522 195 97.5 195ZM87.0542 103.176L98.5542 112.176C112.557 117.692 121.362 100.975 134.01 76.9611C136.076 73.0388 138.244 68.9219 140.554 64.6755C140.009 56.5501 138.45 53.1584 128.054 54.1755C124.219 57.5243 120.653 60.5671 117.3 63.4278C105.354 73.6204 96.118 81.5013 87.0542 92.6754C85.431 95.5477 85.8374 97.4317 86.5624 100.793C86.7174 101.512 86.8869 102.298 87.0542 103.176ZM59.9601 118.785L55.1344 115.836C54.6479 115.538 54.0218 115.873 54.0097 116.443C53.8067 125.97 56.7872 131.837 63.7382 137.624C65.8292 139.365 68.5178 140.175 71.2385 140.175H78.2313C80.4399 140.175 82.6622 139.991 84.759 139.298C90.203 137.497 94.5082 134.269 96.7874 128.223C99.0568 122.204 95.5286 115.856 90.4235 111.942L89.6411 111.342C85.7223 108.338 80.7129 106.448 76.0004 107.922C71.6343 109.289 69.1974 111.897 67.3937 117.135C67.1646 117.801 66.726 118.381 66.1293 118.754C64.2447 119.931 61.8564 119.943 59.9601 118.785Z" fill="#E6BE6C"/>
</svg>
