
<svg width="195" height="195" viewBox="0 0 195 195" fill="none" xmlns="http://www.w3.org/2000/svg">
<path fill-rule="evenodd" clip-rule="evenodd" d="M97.5 195C151.348 195 195 151.348 195 97.5C195 43.6522 151.348 0 97.5 0C43.6522 0 0 43.6522 0 97.5C0 151.348 43.6522 195 97.5 195ZM123.83 60.5C121.906 57.1667 117.094 57.1667 115.17 60.5L98.2824 89.75C96.3579 93.0833 98.7635 97.25 102.613 97.25H136.387C140.236 97.25 142.642 93.0833 140.718 89.75L123.83 60.5ZM102.567 112.724C102.58 109.98 104.801 107.76 107.544 107.747L136.544 107.613C139.323 107.6 141.579 109.857 141.567 112.636L141.433 141.636C141.42 144.379 139.199 146.6 136.456 146.613L107.456 146.746C104.677 146.759 102.421 144.503 102.433 141.723L102.567 112.724ZM76.5 146C88.3741 146 98 136.374 98 124.5C98 112.626 88.3741 103 76.5 103C64.6259 103 55 112.626 55 124.5C55 136.374 64.6259 146 76.5 146Z" fill="#E6BE6C"/>
</svg>
