<svg width="195" height="195" viewBox="0 0 195 195" fill="none" xmlns="http://www.w3.org/2000/svg">
<path fill-rule="evenodd" clip-rule="evenodd" d="M97.5 195C151.348 195 195 151.348 195 97.5C195 43.6522 151.348 0 97.5 0C43.6522 0 0 43.6522 0 97.5C0 151.348 43.6522 195 97.5 195ZM78.1045 61C78.1045 60.4477 78.5522 60 79.1045 60H80.1045H85.806H133.299H139H140C140.552 60 141 60.4477 141 61V62V81.1045V120.97V121.612H140.986C140.635 129.467 133.879 135.731 125.597 135.731C117.09 135.731 110.194 129.123 110.194 120.97C110.194 112.818 117.09 106.209 125.597 106.209C128.403 106.209 131.033 106.928 133.299 108.184V83.1045H85.806V120.97V121.612H85.7917C85.441 129.467 78.6854 135.731 70.403 135.731C61.8962 135.731 55 129.123 55 120.97C55 112.818 61.8962 106.209 70.403 106.209C73.2085 106.209 75.8389 106.928 78.1045 108.184V81.1045V62V61Z" fill="#E6BE6C"/>
</svg>
