<svg width="195" height="195" viewBox="0 0 195 195" fill="none" xmlns="http://www.w3.org/2000/svg">
<path fill-rule="evenodd" clip-rule="evenodd" d="M97.5 195C151.348 195 195 151.348 195 97.5C195 43.6522 151.348 0 97.5 0C43.6522 0 0 43.6522 0 97.5C0 151.348 43.6522 195 97.5 195ZM74.4245 54H95V87H54.2022L62.0691 62.9572C63.8175 57.614 68.8025 54 74.4245 54ZM141.807 87H101V54H122.676C127.926 54 132.566 57.4119 134.131 62.4224L141.807 87ZM142 93H54V129C54 136.18 59.8203 142 67 142H129C136.18 142 142 136.18 142 129V93Z" fill="#E6BE6C"/>
</svg>
