<svg width="195" height="195" viewBox="0 0 195 195" fill="none" xmlns="http://www.w3.org/2000/svg">
<path fill-rule="evenodd" clip-rule="evenodd" d="M97.5 195C151.348 195 195 151.348 195 97.5C195 43.6522 151.348 0 97.5 0C43.6522 0 0 43.6522 0 97.5C0 151.348 43.6522 195 97.5 195ZM49 67C49 62.5817 52.5817 59 57 59H140C144.418 59 148 62.5817 148 67V121C148 125.418 144.418 129 140 129H111.68C108.843 129 106.802 131.727 107.603 134.449C108.135 136.258 109.795 137.5 111.68 137.5H125C126.838 141.175 124.165 145.5 120.056 145.5H98.5H75.0089C70.7068 145.5 68.9684 139.957 72.5 137.5H84.1339C86.1062 137.5 87.8192 136.143 88.271 134.223C88.8987 131.556 86.8745 129 84.1339 129H57C52.5817 129 49 125.418 49 121V67ZM60 70H137V118H60V70Z" fill="#E6BE6C"/>
</svg>
