<svg width="406" height="131" viewBox="0 0 406 131" fill="none" xmlns="http://www.w3.org/2000/svg">
<path d="M17.0001 83.0442C18.1664 72.5466 20.2579 67.0559 23.8625 60.0442C27.4671 53.0324 30.6639 52.2467 35.5892 50.0304C41.3948 47.4178 60.5 45.5442 67.5 50.0304C77.5 53.0442 79.2558 61.3115 83.5 74.0442C86.7141 83.6863 85 101.544 78 108.044C72.5 114.544 60.743 117.544 56.0001 117.544C43.5233 117.544 34.8886 114.635 25.0001 106.544C19.938 102.402 16.3444 88.9449 17.0001 83.0442Z" stroke="#FCC117" stroke-width="5" stroke-linecap="round" stroke-linejoin="round"/>
<path d="M111 47.5442C111 59.3997 113 70.893 113 82.9787C113 92.2231 114 119.926 114 110.682" stroke="#FCC117" stroke-width="5" stroke-linecap="round" stroke-linejoin="round"/>
<path d="M190.77 110.023C190.77 101.813 190.499 93.8241 189.84 85.6524C189.404 80.2489 188.53 74.848 188.182 69.4536C188.006 66.7335 188.153 63.9514 188.153 61.2234C188.153 58.1988 187.351 49.2415 188.182 52.1497C188.552 53.4445 190.325 55.1362 191.294 56.1049C194.549 59.36 197.228 62.835 199.96 66.5745C204.686 73.0418 210.334 78.7117 214.647 85.4198C216.158 87.7711 218.736 89.6504 220.609 91.7306C222.842 94.2126 224.629 97.1596 226.89 99.5538C228.552 101.313 229.468 103.83 231.049 105.806C232.74 107.919 233.752 109.041 232.649 105.603C230.792 99.813 229.609 93.2911 228.723 87.281C227.585 79.5739 225.605 71.9871 224.273 64.3061C223.302 58.7087 222.703 53.2147 222.703 47.5256C222.703 45.626 222.234 43.8414 222.179 41.9709C222.146 40.8601 222.323 41.6373 221.656 41.9709" stroke="#FCC117" stroke-width="4" stroke-linecap="round" stroke-linejoin="round"/>
<path d="M247.83 107.406C247.83 94.7645 247.541 81.8423 248.382 69.221C248.768 63.4404 249.4 57.7434 249.4 51.9171C249.4 50.114 249.4 48.3109 249.4 46.5078C249.4 45.5801 250.35 48.1157 250.97 48.8053C252.983 51.0419 254.91 53.7584 256.525 56.2794C264.646 68.9555 272.386 82.066 278.948 95.6277C280.993 99.8557 283.912 103.86 285.404 108.337C286.11 110.454 285.016 107.257 284.997 106.766C284.873 103.561 284.455 100.329 283.95 97.169C283.239 92.7264 283.058 87.5557 281.594 83.3259C280.237 79.4065 279.893 74.4905 279.762 70.3552C279.651 66.8493 278.715 63.5183 278.715 60.0019C278.715 55.0355 278.191 40.1454 278.191 45.1118" stroke="#FCC117" stroke-width="4" stroke-linecap="round" stroke-linejoin="round"/>
<path d="M171 75.5442C186.795 75.0442 277.034 69.5442 293 69.5442" stroke="#FCC117" stroke-width="4" stroke-linecap="round" stroke-linejoin="round"/>
<path fill-rule="evenodd" clip-rule="evenodd" d="M132.682 58.6968C133.977 56.314 137.264 54.0245 141.222 53.1268C145.125 52.2416 149.092 52.8388 151.821 55.4086C151.922 55.5033 152.031 55.5884 152.148 55.6626C153.299 56.3958 154.141 57.8075 154.506 59.5906C154.874 61.3808 154.676 63.1593 154.172 64.2696C154.14 64.3412 154.111 64.4145 154.087 64.4891C153.503 66.2611 151.869 68.2077 149.718 70.2327C148.714 71.1782 147.67 72.0766 146.667 72.9402L146.554 73.0371C145.543 73.9072 144.537 74.775 143.759 75.5587C143.645 75.6737 143.544 75.801 143.457 75.9382C143.465 75.9262 143.463 75.928 143.448 75.9446V75.9447C143.414 75.9826 143.309 76.0973 143.084 76.2992C142.85 76.509 142.591 76.7222 142.306 76.957C142.241 77.0101 142.176 77.0642 142.109 77.1197C141.805 77.3705 141.372 77.7289 141.069 78.0637L141.06 78.0735C140.956 78.1877 140.568 78.6134 140.407 79.2301C140.303 79.6288 140.241 80.329 140.673 81.026C141.084 81.6887 141.692 81.939 142.018 82.0316C143.921 82.5723 147.636 83.5272 149.916 83.6606C150.892 83.7177 152.378 84.2274 153.722 85.1437C155.089 86.0756 155.889 87.135 156.084 88.004C156.692 90.7286 156.177 92.147 155.342 93.1507C154.363 94.3273 152.692 95.2637 150.188 96.4037C144.722 97.7866 140.337 99.5232 137.144 101.167C135.53 101.998 134.197 102.818 133.173 103.573C132.305 104.212 131.492 104.926 130.98 105.67C125.91 111.205 127.158 120.145 132.913 125.869C139.563 132.485 150.512 131.841 157.424 127.081C164.26 122.373 170.52 116.657 176.345 110.862C182.053 105.185 188.095 101.364 194.985 97.0071C195.308 96.8027 195.633 96.5971 195.96 96.3902C199.803 93.9578 203.417 92.2112 207.41 90.2815C208.705 89.6556 210.04 89.0104 211.435 88.3163C215.015 86.5359 221.81 84.965 229.021 83.8433C235.282 82.8694 241.578 82.2743 245.839 82.143C246.071 82.2161 246.319 82.2517 246.576 82.2429C261.072 81.743 278.383 81.2442 293 81.2442C294.215 81.2442 295.2 80.2592 295.2 79.0442C295.2 77.8291 294.215 76.8442 293 76.8442C278.854 76.8442 262.227 77.3085 248.067 77.7892C247.886 77.7411 247.696 77.7154 247.5 77.7154C243.038 77.7154 235.616 78.3645 228.344 79.4956C221.147 80.6153 213.732 82.2599 209.476 84.3767C208.18 85.0214 206.905 85.6369 205.644 86.2462V86.2463C201.595 88.2023 197.681 90.0933 193.607 92.6724C193.249 92.8991 192.892 93.1249 192.536 93.3499L192.526 93.3562C185.719 97.6588 179.302 101.715 173.242 107.743C167.492 113.463 161.448 118.968 154.928 123.457C149.289 127.341 140.792 127.501 136.016 122.75C131.394 118.152 131.175 111.856 134.316 108.544C134.428 108.426 134.527 108.295 134.61 108.155C134.609 108.158 134.609 108.157 134.611 108.154C134.624 108.137 134.697 108.038 134.883 107.858C135.09 107.658 135.386 107.407 135.784 107.114C136.579 106.528 137.703 105.828 139.158 105.079C142.064 103.583 146.195 101.939 151.451 100.623C151.579 100.591 151.703 100.548 151.823 100.494C154.338 99.3564 156.989 98.0516 158.725 95.9644C160.627 93.6767 161.21 90.7698 160.378 87.0447C159.837 84.6259 158.01 82.7412 156.2 81.5079C154.368 80.2589 152.128 79.3825 150.173 79.2681C149.327 79.2186 148.111 78.9985 146.861 78.7215C146.912 78.6592 146.962 78.5953 147.011 78.53C147.629 77.9217 148.446 77.2137 149.424 76.3722L149.558 76.257V76.2568C150.546 75.4069 151.657 74.4508 152.735 73.4358C154.894 71.4025 157.245 68.8437 158.228 65.9773C159.145 63.8766 159.323 61.1754 158.817 58.7068C158.313 56.2499 157.051 53.6575 154.69 52.0685C150.584 48.3116 145.023 47.7529 140.249 48.8358C135.563 49.8985 131.066 52.6668 128.937 56.3802C127.596 58.0063 126.907 60.5245 126.812 62.7581C126.714 65.0433 127.207 68.0111 129.379 69.7401C132.522 72.2411 136.44 71.1404 139.16 69.8604C141.832 68.6031 144.312 66.7256 145.739 65.6459C145.844 65.566 145.944 65.4905 146.038 65.42C147.008 64.6887 147.202 63.3093 146.471 62.339C145.739 61.3686 144.36 61.1748 143.39 61.906L143.124 62.1064C141.664 63.2096 139.523 64.8268 137.287 65.8793C134.761 67.0677 133.107 67.0829 132.119 66.2972C131.622 65.9016 131.13 64.7713 131.208 62.9455C131.284 61.1667 131.871 59.6853 132.381 59.1224C132.498 58.993 132.599 58.8501 132.682 58.6968Z" fill="#FCC117"/>
<path d="M311.878 97.4106C316.54 97.4106 321.201 97.4106 325.863 97.4106C327.095 97.4106 331.339 97.1455 332.5 97.4105" stroke="#FCC117" stroke-width="3" stroke-linecap="round" stroke-linejoin="round"/>
<path d="M359.5 81.5725C357.187 81.5725 355 81.5725 352.685 81.5725C351.341 81.3189 349.389 81.5725 348 81.5725C346.317 81.5725 344.683 81.5725 343 81.5725" stroke="#FCC117" stroke-width="3" stroke-linecap="round" stroke-linejoin="round"/>
<path d="M351 89.211C346.863 89.211 341.766 89.3167 337.642 89.211C335.756 89.1626 333.986 88.5443 332.089 88.5443C330.741 88.5443 329.393 88.5443 328.045 88.5443C327.368 88.5443 324.5 88.5443 323.5 88.5443" stroke="#FCC117" stroke-width="3" stroke-linecap="round" stroke-linejoin="round"/>
<path d="M321.682 71.4421C327.6 71.4421 333.518 71.4421 339.436 71.4421" stroke="#FCC117" stroke-width="3" stroke-linecap="round" stroke-linejoin="round"/>
<path d="M338.641 58.928C342.528 58.928 346.414 58.928 350.3 58.928" stroke="#FCC117" stroke-width="3" stroke-linecap="round" stroke-linejoin="round"/>
<path fill-rule="evenodd" clip-rule="evenodd" d="M339.871 39.0485C340.321 39.0191 340.783 39.1409 341.176 39.4269C346.814 43.5271 348.919 45.6302 352.995 50.2156C353.203 50.4502 353.827 50.9731 354.865 51.7353C355.845 52.4547 357.048 53.283 358.275 54.104C360.725 55.7441 363.21 57.3143 364.064 57.8506C364.191 57.9303 364.308 58.0241 364.414 58.1301C366.737 60.4533 367.67 61.6473 368.526 62.7669L368.607 62.8727C369.359 63.856 370.066 64.7817 371.914 66.6301C374.123 68.839 375.968 71.1679 377.779 73.455V73.4552L377.78 73.4554C378.531 74.4044 379.277 75.3462 380.041 76.2692C380.277 76.5547 380.516 76.8442 380.757 77.1365C383.195 80.0948 385.864 83.3319 388.562 85.4462C393.744 89.5083 397.252 93.0792 401.709 97.7137V97.7139L401.787 97.7955V97.7956L401.873 97.8845V97.8846C402.957 99.0111 404.636 100.756 405.564 102.381C405.758 102.72 406.013 103.401 405.708 104.19C405.427 104.914 404.856 105.235 404.601 105.351C404.12 105.571 403.627 105.583 403.45 105.587C402.952 105.598 402.341 105.532 401.82 105.462C400.932 105.343 399.934 105.158 399.414 105.062L399.32 105.044C396.879 105.048 395.169 105.127 393.448 105.207L393.4 105.209C391.642 105.29 389.862 105.373 387.328 105.373H381.152C380.149 105.517 378.654 105.569 377.294 105.617C377.059 105.625 376.828 105.633 376.604 105.642C375.756 105.673 374.968 105.709 374.314 105.766C374.111 105.783 373.929 105.802 373.769 105.822C373.76 105.828 373.75 105.834 373.741 105.839C373.29 106.113 372.742 106.277 372.314 106.386C371.377 106.625 370.078 106.822 368.668 106.98C365.817 107.301 362.171 107.5 359.242 107.5H359.209H359.175H359.141H359.107H359.073H359.039H359.005H358.97H358.935H358.901H358.866H358.831H358.796H358.76H358.725H358.689H358.654H358.618H358.582H358.546H358.509H358.473H358.437H358.4H358.363H358.326H358.289H358.252H358.215H358.178H358.14H358.102H358.065H358.027H357.989H357.951H357.913H357.874H357.836H357.797H357.758H357.72H357.681H357.642H357.602H357.563H357.524H357.484H357.444H357.405H357.365H357.325H357.285H357.244H357.204H357.164H357.123H357.082H357.041H357.001H356.96H356.918H356.877H356.836H356.794H356.753H356.711H356.669H356.627H356.585H356.543H356.501H356.459H356.416H356.374H356.331H356.289H356.246H356.203H356.16H356.117H356.073H356.03H355.987H355.943H355.899H355.856H355.812H355.768H355.724H355.68H355.636H355.591H355.547H355.502H355.458H355.413H355.368H355.324H355.279H355.234H355.188H355.143H355.098H355.052H355.007H354.961H354.916H354.87H354.824H354.778H354.732H354.686H354.64H354.593H354.547H354.501H354.454H354.407H354.361H354.314H354.267H354.22H354.173H354.126H354.079H354.032H353.984H353.937H353.889H353.842H353.794H353.746H353.698H353.651H353.603H353.555H353.506H353.458H353.41H353.362H353.313H353.265H353.216H353.168H353.119H353.07H353.021H352.973H352.924H352.875H352.825H352.776H352.727H352.678H352.628H352.579H352.529H352.48H352.43H352.381H352.331H352.281H352.231H352.181H352.131H352.081H352.031H351.981H351.931H351.88H351.83H351.78H351.729H351.679H351.628H351.577H351.527H351.476H351.425H351.374H351.324H351.273H351.222H351.17H351.119H351.068H351.017H350.966H350.914H350.863H350.812H350.76H350.709H350.657H350.606H350.554H350.502H350.451H350.399H350.347H350.295H350.243H350.191H350.139H350.087H350.035H349.983H349.931H349.879H349.826H349.774H349.722H349.669H349.617H349.565H349.512H349.46H349.407H349.355H349.302H349.249H349.197H349.144H349.091H349.038H348.986H348.933H348.88H348.827H348.774H348.721H348.668H348.615H348.562H348.509H348.456H348.403H348.35H348.296H348.243H348.19H348.137H348.084H348.03H347.977H347.924H347.87H347.817H347.763H347.71H347.657H347.603H347.55H347.496H347.443H347.389H347.335H347.282H347.228H347.175H347.121H347.067H347.014H346.96H346.906H346.853H346.799H346.745H346.692H346.638H346.584H346.53H346.477H346.423H346.369H346.315H346.261H346.208H346.154H346.1H346.046H345.992H345.938H345.885H345.831H345.777H345.723H345.669H345.615H345.562H345.508H345.454H345.4H345.346H345.292H345.238H345.185H345.131H345.077H345.023H344.969H344.915H344.861H344.808H344.754H344.7H344.646H344.592H344.539H344.485H344.431H344.377H344.323H344.27H344.216H344.162H344.108H344.055H344.001H343.947H343.894H343.84H343.786H343.733H343.679H343.626H343.572H343.518H343.465H343.411H343.358H343.304H343.251H343.197H343.144H343.091H343.037H342.984H342.93H342.877H342.824H342.77H342.717H342.664H342.611H342.558H342.504H342.451H342.398H342.345H342.292H342.239H342.186H342.133H342.08H342.027H341.974H341.921H341.869H341.816H341.763H341.71H341.658H341.605H341.552H341.5H341.447H341.395H341.342H341.29H341.237H341.185H341.133H341.08H341.028H340.976H340.924H340.871H340.819H340.767H340.715H340.663H340.611H340.56H340.508H340.456H340.404H340.352H340.301H340.249H340.198H340.146H340.095H340.043H339.992H339.94H339.889H339.838H339.787H339.736H339.684H339.633H339.582H339.531H339.481H339.43H339.379H339.328H339.278H339.227H339.176H339.126H339.076H339.025H338.975H338.925H338.874H338.824H338.774H338.724H338.674H338.624H338.574H338.525H338.475H338.425H338.376H338.326H338.277H338.227H338.178H338.129H338.079H338.03H337.981H337.932H337.883H337.834H337.786H337.737H337.688H337.64H337.591H337.543H337.494H337.446H337.398H337.35H337.302H337.254H337.206H337.158H337.11H337.062H337.015H336.967H336.92H336.872H336.825H336.778H336.731H336.684H336.637H336.59H336.543H336.496H336.449H336.403H336.356H336.31H336.264H336.217H336.171H336.125H336.079H336.033H335.987H335.942H335.896H335.85H335.805H335.76H335.714H335.669H335.624H335.579H335.534H335.489H335.444H335.4H335.355H335.311H335.266H335.222H335.178H335.134H335.09H335.046H335.002H334.959H334.915H334.872H334.828H334.785H334.742H334.699H334.656H334.613H334.57H334.527H334.485C330.649 107.5 326.745 108.07 322.871 108.635C322.007 108.761 321.144 108.887 320.284 109.006C315.735 109.637 311.09 110.116 307.294 108.986C306.376 108.713 305.781 107.828 305.874 106.875C306.215 103.371 307.813 97.3088 309.84 91.3483C311.826 85.5051 314.327 79.4528 316.676 75.7399C317.529 73.1575 319.278 69.6926 321.343 66.0309C323.501 62.2033 326.085 58.0222 328.563 54.159C331.043 50.2927 333.427 46.7288 335.191 44.1324C336.073 42.8337 336.8 41.7761 337.308 41.0424C337.562 40.6756 337.76 40.3897 337.896 40.1951L338.051 39.973L338.091 39.9157L338.101 39.901L338.104 39.8971L338.105 39.8961C338.105 39.8959 338.105 39.8958 338.282 40.02V40.0199L338.105 39.8956C338.483 39.3564 339.103 39.0381 339.762 39.0444C339.798 39.0448 339.835 39.0461 339.871 39.0485ZM403.404 101.585C403.405 101.586 403.392 101.587 403.363 101.588C403.389 101.585 403.403 101.585 403.404 101.585ZM338.5 46.3799C338.947 45.7217 339.354 45.1262 339.711 44.6043C339.998 45.0372 340.305 45.5032 340.618 45.9812C341.979 48.061 343.337 50.192 343.712 50.9408C345.566 54.6385 348.29 60.5323 351.196 66.821L351.799 68.1249C354.916 74.869 358.181 81.9073 360.713 86.9428C360.766 87.0487 360.829 87.1496 360.9 87.2443C363.031 90.0859 364.349 92.69 365.776 95.5343L365.831 95.6438C366.942 97.8594 368.121 100.21 369.783 102.803C369.32 102.873 368.796 102.941 368.222 103.006C365.524 103.309 362.027 103.5 359.242 103.5H359.209H359.175H359.141H359.107H359.073H359.039H359.005H358.97H358.935H358.901H358.866H358.831H358.796H358.76H358.725H358.689H358.654H358.618H358.582H358.546H358.509H358.473H358.437H358.4H358.363H358.326H358.289H358.252H358.215H358.178H358.14H358.102H358.065H358.027H357.989H357.951H357.913H357.874H357.836H357.797H357.758H357.72H357.681H357.642H357.602H357.563H357.524H357.484H357.444H357.405H357.365H357.325H357.285H357.244H357.204H357.164H357.123H357.082H357.041H357.001H356.96H356.918H356.877H356.836H356.794H356.753H356.711H356.669H356.627H356.585H356.543H356.501H356.459H356.416H356.374H356.331H356.289H356.246H356.203H356.16H356.117H356.073H356.03H355.987H355.943H355.899H355.856H355.812H355.768H355.724H355.68H355.636H355.591H355.547H355.502H355.458H355.413H355.368H355.324H355.279H355.234H355.188H355.143H355.098H355.052H355.007H354.961H354.916H354.87H354.824H354.778H354.732H354.686H354.64H354.593H354.547H354.501H354.454H354.407H354.361H354.314H354.267H354.22H354.173H354.126H354.079H354.032H353.984H353.937H353.889H353.842H353.794H353.746H353.698H353.651H353.603H353.555H353.506H353.458H353.41H353.362H353.313H353.265H353.216H353.168H353.119H353.07H353.021H352.973H352.924H352.875H352.825H352.776H352.727H352.678H352.628H352.579H352.529H352.48H352.43H352.381H352.331H352.281H352.231H352.181H352.131H352.081H352.031H351.981H351.931H351.88H351.83H351.78H351.729H351.679H351.628H351.577H351.527H351.476H351.425H351.374H351.324H351.273H351.222H351.17H351.119H351.068H351.017H350.966H350.914H350.863H350.812H350.76H350.709H350.657H350.606H350.554H350.502H350.451H350.399H350.347H350.295H350.243H350.191H350.139H350.087H350.035H349.983H349.931H349.879H349.826H349.774H349.722H349.669H349.617H349.565H349.512H349.46H349.407H349.355H349.302H349.249H349.197H349.144H349.091H349.038H348.986H348.933H348.88H348.827H348.774H348.721H348.668H348.615H348.562H348.509H348.456H348.403H348.35H348.296H348.243H348.19H348.137H348.084H348.03H347.977H347.924H347.87H347.817H347.763H347.71H347.657H347.603H347.55H347.496H347.443H347.389H347.335H347.282H347.228H347.175H347.121H347.067H347.014H346.96H346.906H346.853H346.799H346.745H346.692H346.638H346.584H346.53H346.477H346.423H346.369H346.315H346.261H346.208H346.154H346.1H346.046H345.992H345.938H345.885H345.831H345.777H345.723H345.669H345.615H345.562H345.508H345.454H345.4H345.346H345.292H345.238H345.185H345.131H345.077H345.023H344.969H344.915H344.861H344.808H344.754H344.7H344.646H344.592H344.539H344.485H344.431H344.377H344.323H344.27H344.216H344.162H344.108H344.055H344.001H343.947H343.894H343.84H343.786H343.733H343.679H343.626H343.572H343.518H343.465H343.411H343.358H343.304H343.251H343.197H343.144H343.091H343.037H342.984H342.93H342.877H342.824H342.77H342.717H342.664H342.611H342.558H342.504H342.451H342.398H342.345H342.292H342.239H342.186H342.133H342.08H342.027H341.974H341.921H341.869H341.816H341.763H341.71H341.658H341.605H341.552H341.5H341.447H341.395H341.342H341.29H341.237H341.185H341.133H341.08H341.028H340.976H340.924H340.871H340.819H340.767H340.715H340.663H340.611H340.56H340.508H340.456H340.404H340.352H340.301H340.249H340.198H340.146H340.095H340.043H339.992H339.94H339.889H339.838H339.787H339.736H339.684H339.633H339.582H339.531H339.481H339.43H339.379H339.328H339.278H339.227H339.176H339.126H339.076H339.025H338.975H338.925H338.874H338.824H338.774H338.724H338.674H338.624H338.574H338.525H338.475H338.425H338.376H338.326H338.277H338.227H338.178H338.129H338.079H338.03H337.981H337.932H337.883H337.834H337.786H337.737H337.688H337.64H337.591H337.543H337.494H337.446H337.398H337.35H337.302H337.254H337.206H337.158H337.11H337.062H337.015H336.967H336.92H336.872H336.825H336.778H336.731H336.684H336.637H336.59H336.543H336.496H336.449H336.403H336.356H336.31H336.264H336.217H336.171H336.125H336.079H336.033H335.987H335.942H335.896H335.85H335.805H335.76H335.714H335.669H335.624H335.579H335.534H335.489H335.444H335.4H335.355H335.311H335.266H335.222H335.178H335.134H335.09H335.046H335.002H334.959H334.915H334.872H334.828H334.785H334.742H334.699H334.656H334.613H334.57H334.527H334.485C330.329 103.5 326.072 104.123 322.188 104.691C321.351 104.814 320.532 104.934 319.735 105.044C315.929 105.572 312.704 105.873 310.103 105.508C310.663 102.303 311.959 97.541 313.627 92.6357C315.633 86.7325 318.07 80.9423 320.178 77.6877C320.277 77.536 320.354 77.3717 320.408 77.1992C321.09 75.0287 322.698 71.7714 324.827 67.9955C326.933 64.2604 329.472 60.1499 331.93 56.3186C334.385 52.4904 336.749 48.9571 338.5 46.3799Z" fill="#FCC117"/>
<path d="M3.07605 106.533C10.9857 103.222 18.3782 95.1136 24.4314 89.0605C30.0086 83.4833 35.4827 76.9476 41.5588 71.9763C48.7165 66.1199 54.6161 58.6785 62.0943 53.1232C66.1323 50.1236 71.3639 44.4249 76.0724 42.8554" stroke="#FCC117" stroke-width="4.4" stroke-linecap="round" stroke-linejoin="round"/>
<path d="M13.9478 115.075C20.9225 110.381 25.982 104.706 31.8085 98.7674C36.7018 93.7801 41.8201 89.3401 47.1671 84.7894C52.3749 80.3572 55.0948 73.4204 60.7137 69.2583C70.1665 62.2562 78.4086 53.7222 87.7206 46.7382" stroke="#FCC117" stroke-width="4.4" stroke-linecap="round" stroke-linejoin="round"/>
<path d="M27.9258 123.617C36.0671 113.8 44.8621 104.148 54.7601 96.0495C61.5388 90.5033 66.7877 83.2022 72.966 77.0238C76.8338 73.1561 81.9234 70.5549 85.0458 66.5403C88.2074 62.4754 92.1306 58.3794 96.2627 55.2803" stroke="#FCC117" stroke-width="4.4" stroke-linecap="round" stroke-linejoin="round"/>
<path d="M115.342 37.7593C112.514 38.9501 109.402 39.7609 106.326 40.2934C105.357 40.778 105.18 41.4543 104.764 39.9987C104.461 38.9375 104.764 38.3339 104.764 37.2289C104.764 35.8412 104.794 34.1939 105.029 33.5457C105.932 33.5457 110.833 31.4661 111.512 30.9233C113.057 29.6871 116.527 28.9196 118.525 28.9196C129.236 28.9196 139.083 28.9813 148.756 33.2805C149.706 33.7026 150.783 34.4615 151.703 34.7243C152.331 34.9038 154.775 35.6479 155.121 36.0797C155.84 36.9795 155.651 36.4235 155.651 38.2012V39.4978C155.651 40.4131 157.11 42.0015 155.121 41.8845C154.166 41.8284 153.02 40.8838 151.938 40.8238C149.613 40.6946 146.346 40.3361 144.101 39.6451C141.634 38.8861 138.816 38.7621 136.292 38.2013C133.864 37.6617 130.809 37.1111 128.337 37.1111C125.724 37.1111 122.188 36.4644 119.703 37.229C118.336 37.6496 116.616 37.223 115.342 37.7593Z" stroke="#FCC117" stroke-width="3" stroke-linecap="round" stroke-linejoin="round"/>
<path d="M117.288 22.3746C112.251 22.3746 109.36 26.5082 104.764 28.3254C104.764 24.9086 105.425 19.1809 105.425 15.6134C105.425 11.8503 107.092 8.77899 107.092 4.98532C107.092 4.20148 106.462 3.10978 107.3 3.10978C107.79 3.10978 109.13 3.32348 109.5 3.61919C112.425 5.54419 111 4.54419 112.5 5.54419C115.232 7.36542 115.231 7.7236 118 9.4542C119.008 10.0836 120.166 11.0697 120.751 11.6539C120.874 11.7774 121.86 10.6847 122 10.5442C123.214 9.33043 123.802 8.24197 125 7.04419C126.167 5.87755 127.391 5.00582 128.5 3.61919C128.876 3.14889 130.72 1.66769 131.17 2.06782C131.697 2.53587 132.392 2.96149 132.953 3.41079C135.607 5.53402 138.413 7.8562 141.289 9.4542C142.236 9.98031 143.44 12.4481 144.322 11.6539C145.396 10.687 146.461 9.60369 147.749 8.92164C149.97 7.74582 154.445 5.23092 155.761 2.99401C157.407 0.195033 157.752 4.70007 157.752 5.70312V11.1213C157.752 14.694 156.502 18.4488 156.502 21.9578C156.502 24.1112 156.674 28.1401 156.674 30.2935C156.674 30.419 155.435 29.786 155 29.5442C154.222 29.1119 153.742 28.9431 152.923 28.5338C149.502 26.8231 146.746 24.681 143.013 23.5323C138.601 22.1747 134.695 21.9578 130 21.9578C125.687 21.9578 121.522 22.3746 117.288 22.3746Z" stroke="#FCC117" stroke-width="3" stroke-linecap="round" stroke-linejoin="round"/>
</svg>
